<svg viewBox="0 0 20 16.64" xmlns="http://www.w3.org/2000/svg"><path d="m19.68 1.94a7.92 7.92 0 0 1 -1.38.47 4.3 4.3 0 0 0 1.14-1.82.23.23 0 0 0 -.33-.26 8 8 0 0 1 -2.11.87h-.13a.56.56 0 0 1 -.37-.14 4.31 4.31 0 0 0 -2.85-1.06 4.61 4.61 0 0 0 -1.37.21 4.18 4.18 0 0 0 -2.82 3 4.6 4.6 0 0 0 -.1 1.59.15.15 0 0 1 0 .12.16.16 0 0 1 -.16.08 11.31 11.31 0 0 1 -7.78-4.17.23.23 0 0 0 -.42.03 4.32 4.32 0 0 0 .7 5.24 3.86 3.86 0 0 1 -1-.38.23.23 0 0 0 -.33.19 4.32 4.32 0 0 0 2.63 3.98h-.14a3.88 3.88 0 0 1 -.73-.07.23.23 0 0 0 -.26.29 4.32 4.32 0 0 0 3.41 2.94 8 8 0 0 1 -4.45 1.36h-.5a.33.33 0 0 0 -.32.25.34.34 0 0 0 .16.34 11.83 11.83 0 0 0 5.95 1.6 12 12 0 0 0 5.08-1.08 11.22 11.22 0 0 0 3.72-2.79 12.22 12.22 0 0 0 2.28-3.73 12 12 0 0 0 .8-4.21v-.07a.73.73 0 0 1 .27-.57 8.52 8.52 0 0 0 1.73-1.88.23.23 0 0 0 -.28-.33z" fill="#00c3ff"/></svg>