<svg xmlns="http://www.w3.org/2000/svg" viewBox="0 0 20 16.64"><defs><style>.cls-1{fill:#00c3ff;}</style></defs><title>tw_footer-icon</title><g id="Layer_2" data-name="Layer 2"><g id="Layer_1-2" data-name="Layer 1"><path class="cls-1" d="M19.68,1.94a7.92,7.92,0,0,1-1.38.47A4.3,4.3,0,0,0,19.44.59h0a.23.23,0,0,0-.33-.26h0A8,8,0,0,1,17,1.2l-.13,0a.56.56,0,0,1-.37-.14A4.31,4.31,0,0,0,13.65,0a4.61,4.61,0,0,0-1.37.21,4.18,4.18,0,0,0-2.82,3,4.6,4.6,0,0,0-.1,1.59.15.15,0,0,1,0,.12A.16.16,0,0,1,9.2,5h0A11.31,11.31,0,0,1,1.42.83h0A.23.23,0,0,0,1,.86H1a4.32,4.32,0,0,0,.7,5.24,3.86,3.86,0,0,1-1-.38h0a.23.23,0,0,0-.33.19h0A4.32,4.32,0,0,0,3,9.89H2.86a3.88,3.88,0,0,1-.73-.07h0a.23.23,0,0,0-.26.29h0a4.32,4.32,0,0,0,3.41,2.94A8,8,0,0,1,.83,14.41H.33a.33.33,0,0,0-.32.25A.34.34,0,0,0,.17,15a11.83,11.83,0,0,0,5.95,1.6,12,12,0,0,0,5.08-1.08,11.22,11.22,0,0,0,3.72-2.79A12.22,12.22,0,0,0,17.2,9,12,12,0,0,0,18,4.79V4.72a.73.73,0,0,1,.27-.57A8.52,8.52,0,0,0,20,2.27h0a.23.23,0,0,0-.28-.33Z"/></g></g></svg>