<?xml version="1.0" encoding="utf-8"?>
<!-- Generator: Adobe Illustrator 21.1.0, SVG Export Plug-In . SVG Version: 6.00 Build 0)  -->
<svg version="1.1" id="Layer_1" xmlns="http://www.w3.org/2000/svg" xmlns:xlink="http://www.w3.org/1999/xlink" x="0px" y="0px"
	 viewBox="0 0 327.7 368.2" style="enable-background:new 0 0 327.7 368.2;" xml:space="preserve">
<style type="text/css">
	.st0{fill:#FFF4E1;}
	.st1{fill:#FFF4E1;stroke:#FF6B00;stroke-width:17.6589;stroke-miterlimit:10;}
	.st2{fill:#FFF4E1;stroke:#FF6B00;stroke-width:17.659;stroke-linecap:square;stroke-linejoin:bevel;stroke-miterlimit:10;}
</style>
<rect x="106.8" y="136.4" class="st0" width="206" height="149"/>
<path class="st1" d="M217,168.9h-3.3c-18.1,0-32.8-14.7-32.8-32.8V49.6c0-18.1,14.7-32.8,32.8-32.8h3.3c18.1,0,32.8,14.7,32.8,32.8
	v86.5C249.8,154.2,235.1,168.9,217,168.9z"/>
<path class="st1" d="M79,168.9h-3.3c-18.1,0-32.8-14.7-32.8-32.8V49.6c0-18.1,14.7-32.8,32.8-32.8H79c18.1,0,32.8,14.7,32.8,32.8
	v86.5C111.8,154.2,97.1,168.9,79,168.9z"/>
<path class="st1" d="M148,160.9h-3.3c-18.1,0-32.8-14.7-32.8-32.8V41.6c0-18.1,14.7-32.8,32.8-32.8h3.3c18.1,0,32.8,14.7,32.8,32.8
	v86.5C180.8,146.2,166.1,160.9,148,160.9z"/>
<path class="st2" d="M180.8,270.4c0-22.2-35-42-69-56c61-13,69-106,69-106H43l-28.1,49.5c-3.9,6.9-6,14.7-6,22.7v89
	c0,18.5,7.3,36.2,20.2,49.4l39.8,40.5h226l20.5-59.7c2.3-6.8,3.5-14,3.5-21.2V141.7"/>
<path class="st1" d="M286,192.9h-3.3c-18.1,0-32.8-14.7-32.8-32.8V73.6c0-18.1,14.7-32.8,32.8-32.8h3.3c18.1,0,32.8,14.7,32.8,32.8
	v86.5C318.8,178.2,304.1,192.9,286,192.9z"/>
</svg>
